<mxfile host="app.diagrams.net" agent="Mozilla/5.0 (Windows NT 10.0; Win64; x64) AppleWebKit/537.36 (KHTML, like Gecko) Chrome/128.0.0.0 Safari/537.36 Edg/128.0.0.0" version="24.7.15">
  <diagram name="Page-1" id="7kAlDTY1w82MdVPnst51">
    <mxGraphModel dx="2026" dy="1199" grid="0" gridSize="10" guides="1" tooltips="1" connect="1" arrows="1" fold="1" page="0" pageScale="1" pageWidth="850" pageHeight="1100" math="0" shadow="0">
      <root>
        <mxCell id="0" />
        <mxCell id="1" parent="0" />
        <mxCell id="BBbOiL3yUye4Bfk-F2ww-1" value="" style="ellipse;whiteSpace=wrap;html=1;aspect=fixed;" vertex="1" parent="1">
          <mxGeometry x="277" y="639" width="80" height="80" as="geometry" />
        </mxCell>
        <mxCell id="BBbOiL3yUye4Bfk-F2ww-3" value="Start" style="strokeWidth=2;html=1;shape=mxgraph.flowchart.start_2;whiteSpace=wrap;" vertex="1" parent="1">
          <mxGeometry x="111" y="-111" width="100" height="100" as="geometry" />
        </mxCell>
        <mxCell id="BBbOiL3yUye4Bfk-F2ww-8" value="" style="edgeStyle=none;curved=1;rounded=0;orthogonalLoop=1;jettySize=auto;html=1;fontSize=12;startSize=8;endSize=8;" edge="1" parent="1" source="BBbOiL3yUye4Bfk-F2ww-4" target="BBbOiL3yUye4Bfk-F2ww-6">
          <mxGeometry relative="1" as="geometry" />
        </mxCell>
        <mxCell id="BBbOiL3yUye4Bfk-F2ww-4" value="Login:Username and Password" style="shape=parallelogram;perimeter=parallelogramPerimeter;whiteSpace=wrap;html=1;fixedSize=1;" vertex="1" parent="1">
          <mxGeometry x="76" y="46" width="143" height="69" as="geometry" />
        </mxCell>
        <mxCell id="BBbOiL3yUye4Bfk-F2ww-10" value="" style="edgeStyle=none;curved=1;rounded=0;orthogonalLoop=1;jettySize=auto;html=1;fontSize=12;startSize=8;endSize=8;" edge="1" parent="1" source="BBbOiL3yUye4Bfk-F2ww-6" target="BBbOiL3yUye4Bfk-F2ww-9">
          <mxGeometry relative="1" as="geometry" />
        </mxCell>
        <mxCell id="BBbOiL3yUye4Bfk-F2ww-24" value="" style="edgeStyle=none;curved=1;rounded=0;orthogonalLoop=1;jettySize=auto;html=1;fontSize=12;startSize=8;endSize=8;" edge="1" parent="1" source="BBbOiL3yUye4Bfk-F2ww-6" target="BBbOiL3yUye4Bfk-F2ww-23">
          <mxGeometry relative="1" as="geometry" />
        </mxCell>
        <mxCell id="BBbOiL3yUye4Bfk-F2ww-6" value="Prompt User for Username" style="shape=parallelogram;html=1;strokeWidth=2;perimeter=parallelogramPerimeter;whiteSpace=wrap;rounded=1;arcSize=12;size=0.23;" vertex="1" parent="1">
          <mxGeometry x="80.75" y="158" width="133.5" height="77" as="geometry" />
        </mxCell>
        <mxCell id="BBbOiL3yUye4Bfk-F2ww-7" style="edgeStyle=none;curved=1;rounded=0;orthogonalLoop=1;jettySize=auto;html=1;entryX=0.601;entryY=0.058;entryDx=0;entryDy=0;entryPerimeter=0;fontSize=12;startSize=8;endSize=8;" edge="1" parent="1" source="BBbOiL3yUye4Bfk-F2ww-3" target="BBbOiL3yUye4Bfk-F2ww-4">
          <mxGeometry relative="1" as="geometry" />
        </mxCell>
        <mxCell id="BBbOiL3yUye4Bfk-F2ww-18" style="edgeStyle=none;curved=1;rounded=0;orthogonalLoop=1;jettySize=auto;html=1;exitX=0.5;exitY=0;exitDx=0;exitDy=0;fontSize=12;startSize=8;endSize=8;" edge="1" parent="1" source="BBbOiL3yUye4Bfk-F2ww-9" target="BBbOiL3yUye4Bfk-F2ww-4">
          <mxGeometry relative="1" as="geometry" />
        </mxCell>
        <mxCell id="BBbOiL3yUye4Bfk-F2ww-19" value="Maximum of 3x" style="edgeLabel;html=1;align=center;verticalAlign=middle;resizable=0;points=[];fontSize=12;" vertex="1" connectable="0" parent="BBbOiL3yUye4Bfk-F2ww-18">
          <mxGeometry x="0.0851" y="1" relative="1" as="geometry">
            <mxPoint x="1" as="offset" />
          </mxGeometry>
        </mxCell>
        <mxCell id="BBbOiL3yUye4Bfk-F2ww-21" value="" style="edgeStyle=none;curved=1;rounded=0;orthogonalLoop=1;jettySize=auto;html=1;fontSize=12;startSize=8;endSize=8;" edge="1" parent="1" source="BBbOiL3yUye4Bfk-F2ww-9" target="BBbOiL3yUye4Bfk-F2ww-20">
          <mxGeometry relative="1" as="geometry" />
        </mxCell>
        <mxCell id="BBbOiL3yUye4Bfk-F2ww-22" value="After 3x" style="edgeLabel;html=1;align=center;verticalAlign=middle;resizable=0;points=[];fontSize=12;" vertex="1" connectable="0" parent="BBbOiL3yUye4Bfk-F2ww-21">
          <mxGeometry x="-0.3377" relative="1" as="geometry">
            <mxPoint as="offset" />
          </mxGeometry>
        </mxCell>
        <mxCell id="BBbOiL3yUye4Bfk-F2ww-9" value="User inputs invalid" style="rhombus;whiteSpace=wrap;html=1;strokeWidth=2;rounded=1;arcSize=12;" vertex="1" parent="1">
          <mxGeometry x="254" y="156.5" width="80" height="80" as="geometry" />
        </mxCell>
        <mxCell id="BBbOiL3yUye4Bfk-F2ww-20" value="Exit the Program" style="ellipse;whiteSpace=wrap;html=1;strokeWidth=2;rounded=1;arcSize=12;" vertex="1" parent="1">
          <mxGeometry x="446" y="161.25" width="80" height="80" as="geometry" />
        </mxCell>
        <mxCell id="BBbOiL3yUye4Bfk-F2ww-28" value="" style="edgeStyle=none;curved=1;rounded=0;orthogonalLoop=1;jettySize=auto;html=1;fontSize=12;startSize=8;endSize=8;" edge="1" parent="1" source="BBbOiL3yUye4Bfk-F2ww-23" target="BBbOiL3yUye4Bfk-F2ww-27">
          <mxGeometry relative="1" as="geometry" />
        </mxCell>
        <mxCell id="BBbOiL3yUye4Bfk-F2ww-23" value="User inputs valid username" style="rhombus;whiteSpace=wrap;html=1;strokeWidth=2;rounded=1;arcSize=12;" vertex="1" parent="1">
          <mxGeometry x="-99" y="156.5" width="138" height="89.5" as="geometry" />
        </mxCell>
        <mxCell id="BBbOiL3yUye4Bfk-F2ww-30" value="" style="edgeStyle=none;curved=1;rounded=0;orthogonalLoop=1;jettySize=auto;html=1;fontSize=12;startSize=8;endSize=8;" edge="1" parent="1" source="BBbOiL3yUye4Bfk-F2ww-27" target="BBbOiL3yUye4Bfk-F2ww-29">
          <mxGeometry relative="1" as="geometry" />
        </mxCell>
        <mxCell id="BBbOiL3yUye4Bfk-F2ww-27" value="Ask the user for password" style="whiteSpace=wrap;html=1;strokeWidth=2;rounded=1;arcSize=12;" vertex="1" parent="1">
          <mxGeometry x="-252" y="175" width="120" height="60" as="geometry" />
        </mxCell>
        <mxCell id="BBbOiL3yUye4Bfk-F2ww-31" style="edgeStyle=none;curved=1;rounded=0;orthogonalLoop=1;jettySize=auto;html=1;fontSize=12;startSize=8;endSize=8;" edge="1" parent="1" source="BBbOiL3yUye4Bfk-F2ww-29">
          <mxGeometry relative="1" as="geometry">
            <mxPoint x="-324" y="246" as="targetPoint" />
          </mxGeometry>
        </mxCell>
        <mxCell id="BBbOiL3yUye4Bfk-F2ww-29" value="Incorrect&lt;div&gt;password&lt;/div&gt;" style="rhombus;whiteSpace=wrap;html=1;strokeWidth=2;rounded=1;arcSize=12;" vertex="1" parent="1">
          <mxGeometry x="-230" y="269" width="80" height="80" as="geometry" />
        </mxCell>
      </root>
    </mxGraphModel>
  </diagram>
</mxfile>
